<mxfile host="app.diagrams.net" modified="2023-09-27T02:57:44.301Z" agent="Mozilla/5.0 (Macintosh; Intel Mac OS X 10_15_7) AppleWebKit/537.36 (KHTML, like Gecko) Chrome/116.0.0.0 Safari/537.36" version="21.8.2" etag="dEb3bglxjVq8ZalVNNVd" type="github">
  <diagram name="Page-1" id="DFFAyNwR398v1hB9F3Ok">
    <mxGraphModel>
      <root>
        <mxCell id="0" />
        <mxCell id="1" parent="0" />
      </root>
    </mxGraphModel>
  </diagram>
</mxfile>
